<svg width="18" height="18" viewBox="0 0 18 18" version="1.1" xmlns="http://www.w3.org/2000/svg" xmlns:xlink="http://www.w3.org/1999/xlink">
<title>Shape</title>
<desc>Created using Figma</desc>
<g id="Canvas" transform="translate(-14908 -288)">
<g id="Shape">
<use xlink:href="#path0_fill" transform="translate(14908 288)" fill="url(#paint0_linear)"/>
</g>
</g>
<defs>
<linearGradient id="paint0_linear" x1="0" y1="0" x2="1" y2="0" gradientUnits="userSpaceOnUse" gradientTransform="matrix(19.023 -17.9768 17.9768 19.023 4.72098 14.892)">
<stop offset="0" stop-color="#E53656"/>
<stop offset="1" stop-color="#6082D8"/>
</linearGradient>
<path id="path0_fill" fill-rule="evenodd" d="M 18 9C 18 13.9627 13.9629 18 9 18C 4.03711 18 0 13.9627 0 9C 0 4.03729 4.03711 0 9 0C 13.9629 0 18 4.03729 18 9ZM 7.25781 4.38989L 11.8662 9L 7.25684 13.6101L 6.50781 12.8615L 10.3691 9L 6.50781 5.13953L 7.25781 4.38989ZM 9 1.05884C 13.3789 1.05884 16.9414 4.62073 16.9414 9C 16.9414 13.3793 13.3789 16.9412 9 16.9412C 4.62012 16.9412 1.05859 13.3793 1.05859 9C 1.05859 4.62073 4.62012 1.05884 9 1.05884Z"/>
</defs>
</svg>
