<?xml version="1.0" encoding="UTF-8" standalone="no"?>
<svg width="18px" height="18px" viewBox="0 0 18 18" version="1.1" xmlns="http://www.w3.org/2000/svg" xmlns:xlink="http://www.w3.org/1999/xlink">
    <!-- Generator: sketchtool 47.1 (45422) - http://www.bohemiancoding.com/sketch -->
    <title>0700C1BE-3DD6-4E86-A1BB-DFF374E31700</title>
    <desc>Created with sketchtool.</desc>
    <defs>
        <linearGradient x1="26.2276411%" y1="82.7333631%" x2="131.910932%" y2="-17.1376272%" id="linearGradient-1">
            <stop stop-color="#E53656" offset="0%"></stop>
            <stop stop-color="#6082D8" offset="100%"></stop>
        </linearGradient>
    </defs>
    <g id="Page-1" stroke="none" stroke-width="1" fill="none" fill-rule="evenodd">
        <g id="Проекты" transform="translate(-1366.000000, -186.000000)" fill-rule="nonzero" fill="url(#linearGradient-1)">
            <g id="Види-допомоги" transform="translate(1247.000000, 186.000000)">
                <path d="M126.257176,4.38988235 L130.866235,9 L126.256118,13.6101176 L125.507529,12.8615294 L129.369059,9 L125.507529,5.13952941 L126.257176,4.38988235 L126.257176,4.38988235 Z M137,9 C137,13.9627059 132.962706,18 128,18 C123.037294,18 119,13.9627059 119,9 C119,4.03729412 123.037294,0 128,0 C132.962706,0 137,4.03729412 137,9 Z M135.941176,9 C135.941176,4.62070588 132.379294,1.05882353 128,1.05882353 C123.620706,1.05882353 120.058824,4.62070588 120.058824,9 C120.058824,13.3792941 123.620706,16.9411765 128,16.9411765 C132.379294,16.9411765 135.941176,13.3792941 135.941176,9 Z" id="arrow-down" transform="translate(128.000000, 9.000000) rotate(90.000000) translate(-128.000000, -9.000000) "></path>
            </g>
        </g>
    </g>
</svg>