<?xml version="1.0" encoding="UTF-8" standalone="no"?>
<svg width="41px" height="56px" viewBox="0 0 41 56" version="1.1" xmlns="http://www.w3.org/2000/svg" xmlns:xlink="http://www.w3.org/1999/xlink">
    <!-- Generator: sketchtool 47.1 (45422) - http://www.bohemiancoding.com/sketch -->
    <title>F0CCF839-B116-49C0-84EF-9A6CEA2953FD</title>
    <desc>Created with sketchtool.</desc>
    <defs></defs>
    <g id="Page-1" stroke="none" stroke-width="1" fill="none" fill-rule="evenodd">
        <g id="Виды-помощи" transform="translate(-748.000000, -284.000000)" fill-rule="nonzero" fill="#C5D5E6">
            <g id="Види-допомоги">
                <g id="Материально" transform="translate(730.000000, 270.000000)">
                    <g id="clothes-big">
                        <g transform="translate(18.333333, 14.000000)" id="Group">
                            <g>
                                <path d="M16.1540453,28.6532039 L10.2159223,28.6532039 L10.2159223,1.94174757 L13.8847896,1.94174757 C14.3524919,4.90809061 16.9262136,7.18394822 20.021877,7.18394822 C23.1175405,7.18394822 25.6912621,4.90809061 26.1590939,1.94174757 L29.8275728,1.94174757 L29.8275728,16.8091909 C29.8275728,17.3453722 30.2622654,17.7800647 30.7984466,17.7800647 C31.3346278,17.7800647 31.7693204,17.3453722 31.7693204,16.8091909 L31.7693204,14.1921036 L33.8587702,15.2367638 C33.997411,15.3061489 34.1457605,15.339288 34.2924272,15.339288 C34.5994822,15.339288 34.8988997,15.1935275 35.0862136,14.9281553 L39.7462783,8.32660194 C40.0380583,7.91313916 39.9633657,7.34485437 39.5746278,7.02084142 L31.4235599,0.228478964 C31.2546278,0.0860841424 31.0366343,0 30.7984466,0 L9.24504854,0 C9.00647249,0 8.78834951,0.0863430421 8.61928803,0.229126214 L0.469126214,7.02084142 C0.0803883495,7.34485437 0.00556634304,7.91313916 0.297475728,8.32660194 L4.95754045,14.9281553 C5.14485437,15.1933981 5.44427184,15.339288 5.75132686,15.339288 C5.89786408,15.339288 6.04621359,15.3060194 6.18498382,15.2367638 L8.27430421,14.1921036 L8.27430421,29.6240777 C8.27430421,30.1602589 8.70899676,30.5949515 9.24517799,30.5949515 L16.1541748,30.5949515 C16.690356,30.5949515 17.1250485,30.1602589 17.1250485,29.6240777 C17.1250485,29.0878964 16.6902265,28.6532039 16.1540453,28.6532039 Z M33.9808414,13.1268608 L31.7693204,12.0211003 L31.7693204,3.04427184 L37.6429773,7.93889968 L33.9808414,13.1268608 Z M20.021877,5.24220065 C18.0005178,5.24220065 16.3038188,3.83055016 15.8627832,1.94174757 L24.1809709,1.94174757 C23.7399353,3.83067961 22.0432362,5.24220065 20.021877,5.24220065 Z M6.06265372,13.1268608 L2.4005178,7.93889968 L8.27417476,3.04427184 L8.27417476,12.0211003 L6.06265372,13.1268608 Z" id="Shape"></path>
                                <path d="M38.7950809,18.9078317 L19.2745631,18.9078317 C18.7383819,18.9078317 18.3036893,19.3425243 18.3036893,19.8787055 L18.3036893,54.088932 C18.3036893,54.6251133 18.7383819,55.0598058 19.2745631,55.0598058 L26.7504207,55.0598058 C27.2656311,55.0598058 27.6912621,54.6573463 27.7197411,54.1427832 L29.0346926,30.4862136 L30.349644,54.1427832 C30.3782524,54.6572168 30.803754,55.0598058 31.3189644,55.0598058 L38.794822,55.0598058 C39.3310032,55.0598058 39.7656958,54.6251133 39.7656958,54.088932 L39.7656958,19.8787055 C39.7659547,19.3423948 39.3312621,18.9078317 38.7950809,18.9078317 Z M37.8242071,23.0223948 L34.7627184,23.0223948 L34.7627184,20.8495793 L37.8242071,20.8495793 L37.8242071,23.0223948 Z M25.2486731,23.0223948 L25.2486731,20.8495793 L32.8209709,20.8495793 L32.8209709,23.0223948 L25.2486731,23.0223948 Z M23.3069256,20.8495793 L23.3069256,23.0223948 L20.2454369,23.0223948 L20.2454369,20.8495793 L23.3069256,20.8495793 Z M32.2376699,53.1179288 L30.9179288,29.3773463 C30.8893204,28.8629126 30.4638188,28.4603236 29.9486084,28.4603236 L28.121165,28.4603236 C27.6059547,28.4603236 27.1803236,28.8627832 27.1518447,29.3773463 L25.832233,53.1179288 L20.2455663,53.1179288 L20.2455663,24.9641424 L37.8243366,24.9641424 L37.8243366,53.1179288 L32.2376699,53.1179288 Z" id="Shape"></path>
                            </g>
                        </g>
                    </g>
                </g>
            </g>
        </g>
    </g>
</svg>