<?xml version="1.0" encoding="UTF-8" standalone="no"?>
<svg width="33px" height="40px" viewBox="0 0 33 40" version="1.1" xmlns="http://www.w3.org/2000/svg" xmlns:xlink="http://www.w3.org/1999/xlink">
    <!-- Generator: sketchtool 47.1 (45422) - http://www.bohemiancoding.com/sketch -->
    <title>B3DFA236-FC30-411B-B4DF-8659D19B8AAE</title>
    <desc>Created with sketchtool.</desc>
    <defs></defs>
    <g id="Page-1" stroke="none" stroke-width="1" fill="none" fill-rule="evenodd">
        <g id="Виды-помощи" transform="translate(-196.000000, -290.000000)" fill-rule="nonzero" fill="#C5D5E6">
            <g id="Види-допомоги">
                <g id="Зробити" transform="translate(172.000000, 270.000000)">
                    <path d="M56.3358607,32.7529412 L53.5405666,51.7270588 C53.2629195,53.1670588 52.6252725,53.7976471 52.1617431,54.2588235 C51.7123313,54.7058824 51.4135078,55.0023529 51.4135078,56.4541176 L51.4135078,58.8235294 C51.4135078,59.4729412 50.8864489,60 50.2370372,60 C49.5876254,60 49.0605666,59.4729412 49.0605666,58.8235294 L49.0605666,56.4541176 C49.0605666,54.2070588 49.7146842,53.3741176 50.5052725,52.5905882 C50.8699783,52.2282353 51.0888019,52.0094118 51.2205666,51.3341176 L54.0088019,32.4188235 C54.0511548,32.1294118 54.1288019,31.1482353 53.3664489,31.0423529 C53.1029195,31.0047059 52.8888019,31.0470588 52.7193901,31.1764706 C52.4935078,31.3435294 52.3335078,31.6682353 52.2770372,32.0658824 L51.1076254,39.8682353 C51.0488019,40.2705882 50.7829195,40.6117647 50.4111548,40.7741176 C50.0393901,40.9364706 49.6088019,40.8917647 49.2723313,40.6588235 C49.1546842,40.6776471 48.9570372,40.6047059 48.7593901,40.4752941 C48.4017431,40.2470588 48.1970372,39.8447059 48.2205666,39.4211765 L48.8911548,26.9835294 C48.9452725,26.3294118 48.4911548,25.7858824 47.8746842,25.7317647 C47.5758607,25.7035294 47.2888019,25.7976471 47.0605666,25.9882353 C46.8299783,26.1811765 46.6935078,26.4494118 46.6676254,26.7435294 L45.5782136,37.9952941 C45.5170372,38.6282353 45.0158607,39.0870588 44.3288019,39.0564706 C44.1382136,39.0447059 43.9452725,39.0329412 43.7499783,39.0305882 C43.1170372,39.0164706 42.6088019,38.5058824 42.5970372,37.8752941 L42.3264489,23.4776471 C42.3264489,22.8470588 41.8323313,22.3529412 41.2252725,22.3529412 C40.6182136,22.3529412 40.124096,22.8470588 40.124096,23.4541176 L39.8464489,38.9505882 C39.8370372,39.3976471 39.5782136,39.8023529 39.1735078,39.9929412 C39.0276254,40.0635294 38.8864489,40.1341176 38.7523313,40.2094118 C38.4064489,40.4070588 37.9852725,40.4141176 37.6323313,40.2282353 C37.2793901,40.0447059 37.0417431,39.6941176 37.0017431,39.2988235 L35.7899783,26.76 C35.764096,26.4517647 35.6252725,26.1835294 35.3993901,25.9929412 C35.1711548,25.8023529 34.8629195,25.7152941 34.5876254,25.7364706 C34.2911548,25.7623529 34.0252725,25.9011765 33.8346842,26.1294118 C33.6464489,26.3552941 33.5546842,26.6423529 33.5805666,26.9364706 L34.764096,43.6352941 C34.8017431,44.1482353 34.4982136,44.6282353 34.0182136,44.8141176 C33.5335078,45.0023529 32.9876254,44.8541176 32.6699783,44.4494118 L29.0205666,39.8541176 C28.5429195,39.0541176 27.6982136,38.8305882 27.044096,39.2094118 C26.724096,39.3952941 26.4958607,39.6917647 26.4017431,40.0470588 C26.3076254,40.4 26.3546842,40.7717647 26.5429195,41.0894118 L34.8464489,55.4117647 C35.0346842,55.7388235 35.3429195,55.9670588 35.7099783,56.0564706 C36.2370372,56.1835294 36.6088019,56.6564706 36.6088019,57.2 L36.6088019,58.8235294 C36.6088019,59.4729412 36.0817431,60 35.4323313,60 C34.7829195,60 34.2558607,59.4729412 34.2558607,58.8235294 L34.2558607,58 C33.6582136,57.6776471 33.1617431,57.1976471 32.8111548,56.5929412 L24.5052725,42.2705882 C24.004096,41.4094118 23.8699783,40.4047059 24.1288019,39.4423529 C24.3829195,38.4776471 25.0017431,37.6729412 25.8676254,37.1717647 C27.6511548,36.1435294 29.9335078,36.7552941 30.9593901,38.5341176 L32.1499783,40.0258824 L31.2346842,27.1247059 C31.1546842,26.2258824 31.4370372,25.3270588 32.0299783,24.6164706 C32.6229195,23.9105882 33.4605666,23.4752941 34.3805666,23.3929412 C35.3146842,23.3082353 36.204096,23.5976471 36.9146842,24.1929412 C37.2582136,24.4823529 37.5335078,24.8258824 37.7382136,25.2070588 L37.7711548,23.4352941 C37.7711548,21.5482353 39.3217431,20 41.2252725,20 C43.1288019,20 44.6793901,21.5505882 44.6793901,23.4564706 L44.7123313,25.2117647 C44.9193901,24.8282353 45.1970372,24.4823529 45.5429195,24.1905882 C46.2558607,23.5929412 47.1617431,23.3058824 48.0793901,23.3905882 C49.9876254,23.5576471 51.4017431,25.2447059 51.2346842,27.1505882 L51.1099783,29.4517647 C51.1711548,29.3976471 51.2370372,29.3458824 51.3005666,29.2964706 C51.9782136,28.7882353 52.7993901,28.5905882 53.6958607,28.7129412 C55.5429195,28.9694118 56.6323313,30.6329412 56.3358607,32.7529412 L56.3358607,32.7529412 Z" id="hand-big"></path>
                </g>
            </g>
        </g>
    </g>
</svg>