<?xml version="1.0" encoding="UTF-8" standalone="no"?>
<svg width="39px" height="37px" viewBox="0 0 39 37" version="1.1" xmlns="http://www.w3.org/2000/svg" xmlns:xlink="http://www.w3.org/1999/xlink">
    <!-- Generator: sketchtool 47.1 (45422) - http://www.bohemiancoding.com/sketch -->
    <title>03C043D8-9134-43B5-A3AC-9B16A4BD1F97</title>
    <desc>Created with sketchtool.</desc>
    <defs></defs>
    <g id="Page-1" stroke="none" stroke-width="1" fill="none" fill-rule="evenodd">
        <g id="Виды-помощи" transform="translate(-1061.000000, -292.000000)" fill-rule="nonzero" fill="#C5D5E6">
            <g id="Види-допомоги">
                <g id="Волонтерство" transform="translate(1040.000000, 270.000000)">
                    <g id="heart-big">
                        <g transform="translate(21.000000, 22.000000)" id="Group">
                            <g>
                                <path d="M28.8141931,6.78311996 C30.3322586,7.32151098 31.5579896,8.55052948 32.0963806,10.0685949 C32.2527896,10.5120278 32.6692903,10.7883041 33.1127232,10.7883041 C33.232464,10.7883041 33.3543544,10.7678205 33.4730836,10.7257152 C34.0341078,10.5272009 34.3287182,9.91003635 34.1302039,9.34888573 C33.3673779,7.19089616 31.6917654,5.51427217 29.5359254,4.74917022 C28.9737632,4.55166746 28.3577367,4.84412834 28.1580844,5.40515252 C27.9596965,5.96744113 28.252031,6.58359412 28.8141931,6.78311996 Z" id="Shape"></path>
                                <path d="M18.9394342,36.5541963 C19.1012802,36.6415679 19.2781729,36.6858227 19.4562036,36.6858227 C19.6342342,36.6858227 19.8122649,36.6415679 19.972973,36.5541963 C32.2527896,29.8559191 38.8777304,18.8363521 38.8777304,11.8693852 C38.8777304,5.32435593 33.5541331,0.000632211159 27.0089774,0.000632211159 C22.4125494,0.000632211159 18.1872293,2.69271377 16.2462146,6.86075549 C15.9937095,7.40129603 16.2278805,8.04336969 16.7674095,8.29473684 C17.3079501,8.54724198 17.9500237,8.31205943 18.2013909,7.77253043 C19.7907697,4.36187767 23.2477003,2.15862178 27.0091038,2.15862178 C32.3640588,2.15862178 36.7198672,6.51443022 36.7198672,11.8693852 C36.7198672,18.2040145 30.2751067,28.2698277 19.45633,34.3724356 C8.6374269,28.2698277 2.19266635,18.204141 2.19266635,11.8693852 C2.19266635,6.51443022 6.54961277,2.15862178 11.9034297,2.15862178 C13.2553501,2.15862178 14.5631421,2.43047258 15.7920341,2.96785206 C16.3380117,3.20632211 16.9735104,2.95811601 17.2129919,2.41213845 C17.451462,1.8661609 17.2022443,1.23066224 16.6562668,0.991180654 C15.154386,0.334060376 13.5552711,0.000632211159 11.9034297,0.000632211159 C5.35941204,0.000632211159 0.034676782,5.32422949 0.034676782,11.8693852 C0.034676782,18.8363521 6.66075549,29.8559191 18.9394342,36.5541963 Z" id="Shape"></path>
                            </g>
                        </g>
                    </g>
                </g>
            </g>
        </g>
    </g>
</svg>