<svg width="18" height="18" viewBox="0 0 18 18" version="1.1" xmlns="http://www.w3.org/2000/svg" xmlns:xlink="http://www.w3.org/1999/xlink">
<title>Component</title>
<desc>Created using Figma</desc>
<g id="Canvas" transform="translate(-14917 -437)">
<g id="Component">
<g id="Shape">
<use xlink:href="#path0_fill" transform="translate(14917 437)" fill="url(#paint0_linear)"/>
</g>
<g id="Rectangle 18">
<use xlink:href="#path1_fill" transform="translate(14925.5 441)" fill="url(#paint1_linear)"/>
</g>
<g id="Rectangle 18 Copy">
<use xlink:href="#path1_fill" transform="matrix(6.12323e-17 1 -1 6.12323e-17 14931 445.5)" fill="url(#paint2_linear)"/>
</g>
</g>
</g>
<defs>
<linearGradient id="paint0_linear" x1="0" y1="0" x2="1" y2="0" gradientUnits="userSpaceOnUse" gradientTransform="matrix(19.023 -17.9768 17.9768 19.023 4.72098 14.892)">
<stop offset="0" stop-color="#E53656"/>
<stop offset="1" stop-color="#6082D8"/>
</linearGradient>
<linearGradient id="paint1_linear" x1="0" y1="0" x2="1" y2="0" gradientUnits="userSpaceOnUse" gradientTransform="matrix(1.05683 -9.9871 0.99871 10.5683 0.262276 8.27334)">
<stop offset="0" stop-color="#E53656"/>
<stop offset="1" stop-color="#6082D8"/>
</linearGradient>
<linearGradient id="paint2_linear" x1="0" y1="0" x2="1" y2="0" gradientUnits="userSpaceOnUse" gradientTransform="matrix(1.05683 -9.9871 0.99871 10.5683 0.262276 8.27334)">
<stop offset="0" stop-color="#E53656"/>
<stop offset="1" stop-color="#6082D8"/>
</linearGradient>
<path id="path0_fill" fill-rule="evenodd" d="M 9 18C 13.9629 18 18 13.9627 18 9C 18 4.03729 13.9629 0 9 0C 4.03711 0 0 4.03729 0 9C 0 13.9627 4.03711 18 9 18ZM 8.94141 1C 13.3203 1 16.8828 4.56189 16.8828 8.94116C 16.8828 13.3205 13.3203 16.8824 8.94141 16.8824C 4.56152 16.8824 1 13.3205 1 8.94116C 1 4.56189 4.56152 1 8.94141 1Z"/>
<path id="path1_fill" fill-rule="evenodd" d="M 0 0L 1 0L 1 10L 0 10L 0 0Z"/>
</defs>
</svg>
