<?xml version="1.0" encoding="UTF-8" standalone="no"?>
<svg width="40px" height="33px" viewBox="0 0 40 33" version="1.1" xmlns="http://www.w3.org/2000/svg" xmlns:xlink="http://www.w3.org/1999/xlink">
    <!-- Generator: sketchtool 47.1 (45422) - http://www.bohemiancoding.com/sketch -->
    <title>1801CB6E-617E-45B0-BA86-ED64DE473E90</title>
    <desc>Created with sketchtool.</desc>
    <defs></defs>
    <g id="Page-1" stroke="none" stroke-width="1" fill="none" fill-rule="evenodd">
        <g id="Виды-помощи" transform="translate(-461.000000, -294.000000)" fill-rule="nonzero" fill="#C5D5E6">
            <g id="Види-допомоги">
                <g id="финансово" transform="translate(441.000000, 270.000000)">
                    <g id="wallet-big">
                        <path d="M23.68,24 C21.6705882,24 20.0329412,25.6235294 20.0329412,27.6188235 L20,27.6188235 L20,53.3576471 C20,55.3529412 21.6352941,56.9764706 23.6470588,56.9764706 L55.3929412,56.9764706 L55.3929412,53.0823529 L60,53.0823529 L60,24 L23.68,24 L23.68,24 Z M23.6470588,54.6211765 C22.9341176,54.6211765 22.3529412,54.0541176 22.3529412,53.3552941 L22.3529412,30.8070588 C22.4094118,30.8235294 22.48,30.8188235 22.5364706,30.8352941 C22.8729412,30.9341176 23.2258824,30.9952941 23.6023529,31.0023529 C23.6188235,31.0023529 23.6305882,31.0094118 23.6470588,31.0094118 L53.0423529,31.0094118 L53.0423529,38.1505882 L46.3152941,38.1505882 C44.2870588,38.1505882 42.6376471,39.7341176 42.6376471,41.68 L42.6376471,44.0329412 C42.6376471,45.9788235 44.2870588,47.5623529 46.3152941,47.5623529 L53.0423529,47.5623529 L53.0423529,54.6211765 L23.6470588,54.6211765 L23.6470588,54.6211765 Z M46.3129412,45.2094118 C45.5811765,45.2094118 44.9882353,44.6823529 44.9882353,44.0329412 L44.9882353,41.68 C44.9882353,41.0305882 45.5835294,40.5035294 46.3129412,40.5035294 L57.6470588,40.5035294 L57.6470588,45.2094118 L46.3129412,45.2094118 Z M57.6470588,50.7270588 L55.3929412,50.7270588 L55.3929412,47.5623529 L57.6470588,47.5623529 L57.6470588,50.7270588 Z M55.3929412,38.1505882 L55.3929412,28.6564706 L23.68,28.6564706 C23.0376471,28.6564706 22.3858824,28.3341176 22.3858824,27.6188235 C22.3882353,26.92 22.9694118,26.3529412 23.68,26.3529412 L57.6470588,26.3529412 L57.6470588,38.1505882 L55.3929412,38.1505882 Z" id="Shape"></path>
                    </g>
                </g>
            </g>
        </g>
    </g>
</svg>